<?xml version="1.0" encoding="UTF-8" standalone="no"?>
<!-- Created with Inkscape (http://www.inkscape.org/) -->

<svg
   width="136mm"
   height="136mm"
   viewBox="0 0 136 136"
   version="1.1"
   id="svg1"
   xml:space="preserve"
   xmlns:xlink="http://www.w3.org/1999/xlink"
   xmlns="http://www.w3.org/2000/svg"
   xmlns:svg="http://www.w3.org/2000/svg"><defs
     id="defs1"><linearGradient
       id="linearGradient4"><stop
         style="stop-color:#059166;stop-opacity:1;"
         offset="0"
         id="stop4" /><stop
         style="stop-color:#04815c;stop-opacity:1;"
         offset="1"
         id="stop5" /></linearGradient><linearGradient
       xlink:href="#linearGradient4"
       id="linearGradient5"
       x1="32.829151"
       y1="141.17361"
       x2="173.28577"
       y2="141.17361"
       gradientUnits="userSpaceOnUse"
       gradientTransform="translate(38.116165,-244.23108)" /></defs><g
     id="layer1"
     transform="translate(-35.057465,-73.17362)"><g
       id="g5"><rect
         style="display:inline;mix-blend-mode:darken;fill:url(#linearGradient5);stroke:none;stroke-width:4.45661;paint-order:stroke fill markers"
         id="rect1"
         width="136"
         height="136"
         x="73.173622"
         y="-171.05746"
         ry="27.940042"
         transform="rotate(90)" /><g
         style="fill:none;stroke:currentColor;stroke-width:2;stroke-linecap:round;stroke-linejoin:round"
         id="g1"
         transform="matrix(3.6363636,0,0,3.3144679,59.526513,102.8029)"><g
           id="g2"><path
             d="M 2,9 V 5 A 2,2 0 0 1 4,3 H 7.9 A 2,2 0 0 1 9.59,3.9 L 10.4,5.1 A 2,2 0 0 0 12.07,6 H 20 a 2,2 0 0 1 2,2 v 10 a 2,2 0 0 1 -2,2 H 4 A 2,2 0 0 1 2,18 v -3 a 2,2 0 0 1 2,-2 h 7"
             id="path1"
             style="stroke:#ffffff;stroke-opacity:1" /><path
             d="M 8,16 11,13 8,10"
             id="path2"
             style="stroke:#ffffff;stroke-opacity:1" /></g></g></g></g></svg>
